<svg width="20" height="20" viewBox="0 0 20 20" fill="none" xmlns="http://www.w3.org/2000/svg">
<path d="M14 16C14 14.9391 13.5786 13.9217 12.8284 13.1716C12.0783 12.4214 11.0609 12 10 12M10 12C8.93913 12 7.92172 12.4214 7.17157 13.1716C6.42143 13.9217 6 14.9391 6 16M10 12C11.4728 12 12.6667 10.8061 12.6667 9.33333C12.6667 7.86057 11.4728 6.66667 10 6.66667C8.52724 6.66667 7.33333 7.86057 7.33333 9.33333C7.33333 10.8061 8.52724 12 10 12ZM5.33333 4H14.6667C15.403 4 16 4.59695 16 5.33333V14.6667C16 15.403 15.403 16 14.6667 16H5.33333C4.59695 16 4 15.403 4 14.6667V5.33333C4 4.59695 4.59695 4 5.33333 4Z" stroke="white" stroke-width="1.5" stroke-linecap="round" stroke-linejoin="round"/>
</svg>
