<svg width="20" height="20" viewBox="0 0 20 20" fill="none" xmlns="http://www.w3.org/2000/svg">
<g clip-path="url(#clip0_2773_80)">
<path d="M4.66683 16.6667H15.3335C15.6871 16.6667 16.0263 16.5262 16.2763 16.2762C16.5264 16.0261 16.6668 15.687 16.6668 15.3334V4.66671C16.6668 4.31309 16.5264 3.97395 16.2763 3.7239C16.0263 3.47385 15.6871 3.33337 15.3335 3.33337H7.3335C6.97987 3.33337 6.64074 3.47385 6.39069 3.7239C6.14064 3.97395 6.00016 4.31309 6.00016 4.66671V15.3334C6.00016 15.687 5.85969 16.0261 5.60964 16.2762C5.35959 16.5262 5.02045 16.6667 4.66683 16.6667ZM4.66683 16.6667C4.31321 16.6667 3.97407 16.5262 3.72402 16.2762C3.47397 16.0261 3.3335 15.687 3.3335 15.3334V9.33337C3.3335 8.60004 3.9335 8.00004 4.66683 8.00004H6.00016M14.0002 11.3334H8.66683M12.0002 14H8.66683M8.66683 6.00004H14.0002V8.66671H8.66683V6.00004Z" stroke="white" stroke-width="1.5" stroke-linecap="round" stroke-linejoin="round"/>
</g>
<defs>
<clipPath id="clip0_2773_80">
<rect width="16" height="16" fill="white" transform="translate(2 2)"/>
</clipPath>
</defs>
</svg>
