<svg width="20" height="20" viewBox="0 0 20 20" fill="none" xmlns="http://www.w3.org/2000/svg">
<path d="M8.6665 3.33333H11.3332M9.99984 11.3333V8.66666M4.6665 10.6667C4.82975 9.37064 5.46294 8.1796 6.446 7.31942C7.42906 6.45925 8.69362 5.98976 9.99984 6C10.8625 6.00091 11.7121 6.21109 12.4758 6.6125C13.2394 7.01391 13.8942 7.59458 14.3841 8.30468C14.874 9.01478 15.1844 9.83313 15.2885 10.6895C15.3926 11.5459 15.2875 12.4148 14.982 13.2216C14.6766 14.0284 14.18 14.7491 13.5348 15.3218C12.8897 15.8945 12.1152 16.3022 11.2779 16.5099C10.4405 16.7175 9.56533 16.7189 8.72733 16.514C7.88932 16.3091 7.11353 15.904 6.4665 15.3333L4.6665 13.7333M7.99984 13.3333H4.6665V16.6667" stroke="white" stroke-width="1.5" stroke-linecap="round" stroke-linejoin="round"/>
</svg>
