<svg width="20" height="20" viewBox="0 0 20 20" fill="none" xmlns="http://www.w3.org/2000/svg">
<path d="M6.00016 9.33337H8.66683M7.3335 8.00004V10.6667M12.0002 10H12.0068M14.0002 8.66671H14.0068M13.5468 5.33337H6.4535C5.79368 5.33353 5.15735 5.57829 4.66752 6.02035C4.17768 6.46241 3.86913 7.07037 3.8015 7.72671C3.7975 7.76137 3.79483 7.79404 3.79016 7.82804C3.73616 8.27737 3.3335 11.6374 3.3335 12.6667C3.3335 13.1971 3.54421 13.7058 3.91928 14.0809C4.29436 14.456 4.80306 14.6667 5.3335 14.6667C6.00016 14.6667 6.3335 14.3334 6.66683 14L7.6095 13.0574C7.85949 12.8073 8.19857 12.6668 8.55216 12.6667H11.4482C11.8018 12.6668 12.1408 12.8073 12.3908 13.0574L13.3335 14C13.6668 14.3334 14.0002 14.6667 14.6668 14.6667C15.1973 14.6667 15.706 14.456 16.081 14.0809C16.4561 13.7058 16.6668 13.1971 16.6668 12.6667C16.6668 11.6367 16.2642 8.27737 16.2102 7.82804C16.2055 7.79471 16.2028 7.76137 16.1988 7.72737C16.1314 7.07092 15.8229 6.46279 15.333 6.0206C14.8432 5.5784 14.2067 5.33354 13.5468 5.33337Z" stroke="white" stroke-width="1.5" stroke-linecap="round" stroke-linejoin="round"/>
</svg>
