<svg width="20" height="20" viewBox="0 0 20 20" fill="none" xmlns="http://www.w3.org/2000/svg">
<path d="M8.66683 12C8.66683 13.4728 7.47292 14.6667 6.00016 14.6667C4.5274 14.6667 3.3335 13.4728 3.3335 12C3.3335 10.5273 4.5274 9.33337 6.00016 9.33337C7.47292 9.33337 8.66683 10.5273 8.66683 12ZM8.66683 12C8.66683 11.6464 8.80731 11.3073 9.05735 11.0572C9.3074 10.8072 9.64654 10.6667 10.0002 10.6667C10.3538 10.6667 10.6929 10.8072 10.943 11.0572C11.193 11.3073 11.3335 11.6464 11.3335 12M11.3335 12C11.3335 13.4728 12.5274 14.6667 14.0002 14.6667C15.4729 14.6667 16.6668 13.4728 16.6668 12C16.6668 10.5273 15.4729 9.33337 14.0002 9.33337C12.5274 9.33337 11.3335 10.5273 11.3335 12ZM3.66683 10.6667L5.3335 6.66671C5.80016 5.80004 6.26683 5.33337 7.3335 5.33337M16.3335 10.6667L14.6668 6.66671C14.2002 5.80004 13.6668 5.33337 12.6668 5.33337" stroke="white" stroke-width="1.5" stroke-linecap="round" stroke-linejoin="round"/>
</svg>
