<svg width="20" height="20" viewBox="0 0 20 20" fill="none" xmlns="http://www.w3.org/2000/svg">
<path d="M8 14V5.33333L16 4V12.6667M8 14C8 15.1046 7.10457 16 6 16C4.89543 16 4 15.1046 4 14C4 12.8954 4.89543 12 6 12C7.10457 12 8 12.8954 8 14ZM16 12.6667C16 13.7712 15.1046 14.6667 14 14.6667C12.8954 14.6667 12 13.7712 12 12.6667C12 11.5621 12.8954 10.6667 14 10.6667C15.1046 10.6667 16 11.5621 16 12.6667ZM8 8L16 6.66667" stroke="white" stroke-width="1.5" stroke-linecap="round" stroke-linejoin="round"/>
</svg>
