<svg width="20" height="20" viewBox="0 0 20 20" fill="none" xmlns="http://www.w3.org/2000/svg">
<path d="M14.6668 8.66671V10C14.6668 11.2377 14.1752 12.4247 13.3 13.2999C12.4248 14.175 11.2378 14.6667 10.0002 14.6667M10.0002 14.6667C8.76249 14.6667 7.5755 14.175 6.70033 13.2999C5.82516 12.4247 5.3335 11.2377 5.3335 10V8.66671M10.0002 14.6667V16.6667M10.0002 3.33337C9.46973 3.33337 8.96102 3.54409 8.58595 3.91916C8.21088 4.29423 8.00016 4.80294 8.00016 5.33337V10C8.00016 10.5305 8.21088 11.0392 8.58595 11.4143C8.96102 11.7893 9.46973 12 10.0002 12C10.5306 12 11.0393 11.7893 11.4144 11.4143C11.7894 11.0392 12.0002 10.5305 12.0002 10V5.33337C12.0002 4.80294 11.7894 4.29423 11.4144 3.91916C11.0393 3.54409 10.5306 3.33337 10.0002 3.33337Z" stroke="white" stroke-width="1.5" stroke-linecap="round" stroke-linejoin="round"/>
</svg>
